<svg width="24" height="24" viewBox="0 0 24 24" fill="none" xmlns="http://www.w3.org/2000/svg">
<path d="M22.464 11.784L18.336 10.392L16.296 6.64801C15.744 5.64001 14.688 5.01601 13.56 5.01601H6.12C4.968 5.01601 3.936 5.64001 3.384 6.64801L1.248 10.56V10.584C1.224 10.608 1.224 10.632 1.224 10.656V16.536C1.224 16.8 1.44 17.016 1.704 17.016H3.672C3.888 18.12 4.872 18.936 6.024 18.936C7.176 18.936 8.16 18.12 8.376 17.016H15.672C15.888 18.12 16.872 18.936 18.024 18.936C19.176 18.936 20.16 18.12 20.376 17.016H22.32C22.584 17.016 22.8 16.8 22.8 16.536V12.24C22.8 12.024 22.68 11.856 22.464 11.784ZM9.12 6.00001H13.56C14.352 6.00001 15.072 6.43201 15.456 7.12801L17.184 10.32H9.12V6.00001ZM4.224 7.12801C4.608 6.43201 5.328 6.00001 6.12 6.00001H8.16V10.32H2.496L4.224 7.12801ZM3.648 16.08H2.16V15.12H4.08C3.864 15.408 3.72 15.72 3.648 16.08ZM6 18C5.208 18 4.56 17.352 4.56 16.56C4.56 15.768 5.208 15.12 6 15.12C6.792 15.12 7.44 15.768 7.44 16.56C7.44 17.352 6.792 18 6 18ZM18 18C17.208 18 16.56 17.352 16.56 16.56C16.56 15.768 17.208 15.12 18 15.12C18.792 15.12 19.44 15.768 19.44 16.56C19.44 17.352 18.792 18 18 18ZM21.84 16.08H20.352C20.136 14.976 19.152 14.16 18 14.16C16.848 14.16 15.864 14.976 15.648 16.08H8.352C8.136 14.976 7.152 14.16 6 14.16H2.16V11.28H17.928L21.84 12.576V16.08Z" fill="black" stroke="black" stroke-width="0.5"/>
</svg>
