<svg width="24" height="24" viewBox="0 0 24 24" fill="none" xmlns="http://www.w3.org/2000/svg">
<g clip-path="url(#clip0_581_2115)">
<path d="M15.095 8.93891C15.0945 9.01535 15.0916 9.09176 15.0864 9.16802C15.0838 9.20572 15.0798 9.2433 15.0758 9.28089C15.0623 9.40834 15.0923 9.17583 15.0725 9.30189C15.0478 9.45993 15.0075 9.61524 14.958 9.7672C14.9467 9.80188 14.9341 9.83612 14.9216 9.87033C14.9141 9.89065 14.8673 10.0054 14.9158 9.89051C14.8877 9.9571 14.8559 10.0221 14.8231 10.0864C14.7523 10.2251 14.6685 10.3567 14.5773 10.4827C14.5058 10.5816 14.6411 10.4036 14.5651 10.499C14.5428 10.5269 14.5195 10.554 14.4962 10.5812C14.4497 10.6354 14.4004 10.6871 14.3502 10.7379C14.3 10.7888 14.2472 10.8369 14.1935 10.8841C14.1667 10.9076 14.139 10.9303 14.1114 10.9529C14.0701 10.9857 14.0742 10.9827 14.1239 10.9438C14.1048 10.9582 14.0856 10.9723 14.0662 10.9862C13.9498 11.0704 13.8262 11.1442 13.6991 11.2111C13.6352 11.2448 13.5695 11.2749 13.5033 11.3039C13.6173 11.254 13.5036 11.3019 13.4832 11.3096C13.4377 11.327 13.3916 11.3423 13.3454 11.3574C13.2049 11.4032 13.0606 11.436 12.9151 11.4607C12.7894 11.482 13.0213 11.4489 12.8941 11.464C12.8566 11.4685 12.819 11.4715 12.7813 11.4745C12.6924 11.4818 12.6031 11.4834 12.5139 11.4828C12.4377 11.4824 12.3616 11.4776 12.2856 11.4715C12.2481 11.4682 12.2106 11.4642 12.1732 11.4595C12.3009 11.4747 12.1753 11.4582 12.1528 11.4544C11.9954 11.4277 11.841 11.3856 11.69 11.3343C11.6555 11.3226 11.6215 11.3096 11.5875 11.2967C11.4718 11.2526 11.6813 11.3388 11.5681 11.2893C11.502 11.2604 11.4375 11.2279 11.3736 11.1943C11.236 11.1219 11.1055 11.0365 10.9808 10.9438C11.0792 11.0169 10.9824 10.944 10.9656 10.9302C10.9381 10.9075 10.9109 10.8842 10.8842 10.8604C10.8306 10.8133 10.7795 10.7633 10.7293 10.7125C10.6791 10.6617 10.6316 10.6082 10.5851 10.554C10.5618 10.5269 10.5395 10.499 10.5172 10.471C10.597 10.5709 10.4996 10.4442 10.4857 10.4244C10.4028 10.3069 10.3304 10.1823 10.2651 10.0543C10.2487 10.0222 10.2334 9.9894 10.2182 9.95666C10.2089 9.93679 10.1622 9.82299 10.2093 9.9381C10.1771 9.85931 10.1497 9.77869 10.1243 9.69748C10.0802 9.55621 10.0492 9.41111 10.0263 9.26496C10.0462 9.39219 10.0272 9.26611 10.0248 9.24341C10.021 9.20572 10.018 9.16796 10.0156 9.13016C10.0095 9.04095 10.0089 8.95144 10.0106 8.86207C10.012 8.78602 10.0177 8.71014 10.0248 8.63444C10.0269 8.61191 10.0447 8.48514 10.0263 8.6129C10.0316 8.57597 10.0383 8.53929 10.045 8.50261C10.0736 8.34574 10.1174 8.19197 10.1705 8.04173C10.1826 8.00744 10.196 7.97358 10.2093 7.93975C10.1638 8.05519 10.2091 7.94137 10.2182 7.92119C10.2479 7.85542 10.2811 7.7913 10.3155 7.72786C10.3496 7.66464 10.3872 7.60332 10.4258 7.54273C10.445 7.51249 10.4654 7.48296 10.4857 7.45347C10.4993 7.4337 10.5959 7.30586 10.5173 7.40686C10.6051 7.29408 10.7028 7.18924 10.8055 7.09003C10.8568 7.04038 10.9108 6.9935 10.9656 6.94763C10.9821 6.93382 11.0785 6.85969 10.9808 6.93404C11.0187 6.90514 11.0579 6.87781 11.0972 6.85072C11.2157 6.76911 11.3412 6.69821 11.4699 6.63434C11.5024 6.61848 11.5351 6.60321 11.5682 6.58853C11.6807 6.53764 11.4724 6.62666 11.5875 6.58118C11.6667 6.54987 11.7478 6.52344 11.8293 6.49902C11.8999 6.47788 11.9716 6.46066 12.0435 6.44476C12.0798 6.43676 12.1163 6.4301 12.1528 6.42343C12.1751 6.41938 12.301 6.40153 12.1733 6.41831C12.337 6.39679 12.5025 6.39174 12.6674 6.3969C12.7432 6.39925 12.8187 6.40586 12.8941 6.41387C13.0215 6.42741 12.7891 6.39742 12.9151 6.41718C12.9518 6.42294 12.9884 6.43007 13.0249 6.4372C13.181 6.46768 13.3339 6.51341 13.4832 6.56821C13.5035 6.57567 13.6182 6.6226 13.5033 6.574C13.5367 6.58809 13.5695 6.60339 13.6022 6.61868C13.6675 6.64914 13.7312 6.68314 13.7941 6.7182C13.8568 6.75315 13.9177 6.79142 13.9777 6.83074C14.0077 6.85037 14.0369 6.87104 14.0662 6.89171C14.0837 6.9041 14.1804 6.97826 14.0835 6.90267C14.1962 6.99056 14.301 7.08827 14.4001 7.19105C14.4498 7.24245 14.4966 7.29646 14.5425 7.35124C14.5563 7.36774 14.6303 7.46424 14.556 7.36645C14.5777 7.39496 14.5983 7.42421 14.6189 7.45347C14.7018 7.57094 14.7742 7.69557 14.8395 7.82354C14.8559 7.85572 14.8712 7.88846 14.8864 7.92122C14.8957 7.94109 14.9424 8.05489 14.8953 7.93978C14.9229 8.00725 14.9467 8.07619 14.9693 8.14547C15.0151 8.28597 15.0478 8.43042 15.0725 8.57602C15.0938 8.7018 15.0607 8.46974 15.0758 8.59702C15.0803 8.63455 15.0834 8.67222 15.0864 8.70986C15.0926 8.78602 15.0945 8.86251 15.095 8.93891C15.0966 9.20042 15.3118 9.41867 15.5744 9.41867C15.8346 9.41867 16.0556 9.20045 16.0539 8.93891C16.0455 7.59325 15.2543 6.31761 14.0205 5.75997C12.7306 5.17699 11.2304 5.41698 10.1796 6.36279C9.16891 7.27255 8.79843 8.77475 9.23365 10.0568C9.44456 10.6781 9.82987 11.2437 10.3431 11.6537C10.8992 12.098 11.5415 12.3523 12.248 12.4275C13.2225 12.5311 14.2042 12.1639 14.925 11.515C15.6463 10.8658 16.0479 9.9034 16.0539 8.93891C16.0555 8.67738 15.8346 8.45915 15.5744 8.45915C15.3118 8.45915 15.0966 8.67743 15.095 8.93891Z" fill="black"/>
<path d="M15.095 8.93891C15.0945 9.01535 15.0916 9.09176 15.0864 9.16802C15.0838 9.20572 15.0798 9.2433 15.0758 9.28089C15.0623 9.40834 15.0923 9.17583 15.0725 9.30189C15.0478 9.45993 15.0075 9.61524 14.958 9.7672C14.9467 9.80188 14.9341 9.83612 14.9216 9.87033C14.9141 9.89065 14.8673 10.0054 14.9158 9.89051C14.8877 9.9571 14.8559 10.0221 14.8231 10.0864C14.7523 10.2251 14.6685 10.3567 14.5773 10.4827C14.5058 10.5816 14.6411 10.4036 14.5651 10.499C14.5428 10.5269 14.5195 10.554 14.4962 10.5812C14.4497 10.6354 14.4004 10.6871 14.3502 10.7379C14.3 10.7888 14.2472 10.8369 14.1935 10.8841C14.1667 10.9076 14.139 10.9303 14.1114 10.9529C14.0701 10.9857 14.0742 10.9827 14.1239 10.9438C14.1048 10.9582 14.0856 10.9723 14.0662 10.9862C13.9498 11.0704 13.8262 11.1442 13.6991 11.2111C13.6352 11.2448 13.5695 11.2749 13.5033 11.3039C13.6173 11.254 13.5036 11.3019 13.4832 11.3096C13.4377 11.327 13.3916 11.3423 13.3454 11.3574C13.2049 11.4032 13.0606 11.436 12.9151 11.4607C12.7894 11.482 13.0213 11.4489 12.8941 11.464C12.8566 11.4685 12.819 11.4715 12.7813 11.4745C12.6924 11.4818 12.6031 11.4834 12.5139 11.4828C12.4377 11.4824 12.3616 11.4776 12.2856 11.4715C12.2481 11.4682 12.2106 11.4642 12.1732 11.4595C12.3009 11.4747 12.1753 11.4582 12.1528 11.4544C11.9954 11.4277 11.841 11.3856 11.69 11.3343C11.6555 11.3226 11.6215 11.3096 11.5875 11.2967C11.4718 11.2526 11.6813 11.3388 11.5681 11.2893C11.502 11.2604 11.4375 11.2279 11.3736 11.1943C11.236 11.1219 11.1055 11.0365 10.9808 10.9438C11.0792 11.0169 10.9824 10.944 10.9656 10.9302C10.9381 10.9075 10.9109 10.8842 10.8842 10.8604C10.8306 10.8133 10.7795 10.7633 10.7293 10.7125C10.6791 10.6617 10.6316 10.6082 10.5851 10.554C10.5618 10.5269 10.5395 10.499 10.5172 10.471C10.597 10.5709 10.4996 10.4442 10.4857 10.4244C10.4028 10.3069 10.3304 10.1823 10.2651 10.0543C10.2487 10.0222 10.2334 9.9894 10.2182 9.95666C10.2089 9.93679 10.1622 9.82299 10.2093 9.9381C10.1771 9.85931 10.1497 9.77869 10.1243 9.69748C10.0802 9.55621 10.0492 9.41111 10.0263 9.26496C10.0462 9.39219 10.0272 9.26611 10.0248 9.24341C10.021 9.20572 10.018 9.16796 10.0156 9.13016C10.0095 9.04095 10.0089 8.95144 10.0106 8.86207C10.012 8.78602 10.0177 8.71014 10.0248 8.63444C10.0269 8.61191 10.0447 8.48514 10.0263 8.6129C10.0316 8.57597 10.0383 8.53929 10.045 8.50261C10.0736 8.34574 10.1174 8.19197 10.1705 8.04173C10.1826 8.00744 10.196 7.97358 10.2093 7.93975C10.1638 8.05519 10.2091 7.94137 10.2182 7.92119C10.2479 7.85542 10.2811 7.7913 10.3155 7.72786C10.3496 7.66464 10.3872 7.60332 10.4258 7.54273C10.445 7.51249 10.4654 7.48296 10.4857 7.45347C10.4993 7.4337 10.5959 7.30586 10.5173 7.40686C10.6051 7.29408 10.7028 7.18924 10.8055 7.09003C10.8568 7.04038 10.9108 6.9935 10.9656 6.94763C10.9821 6.93382 11.0785 6.85969 10.9808 6.93404C11.0187 6.90514 11.0579 6.87781 11.0972 6.85072C11.2157 6.76911 11.3412 6.69821 11.4699 6.63434C11.5024 6.61848 11.5351 6.60321 11.5682 6.58853C11.6807 6.53764 11.4724 6.62666 11.5875 6.58118C11.6667 6.54987 11.7478 6.52344 11.8293 6.49902C11.8999 6.47788 11.9716 6.46066 12.0435 6.44476C12.0798 6.43676 12.1163 6.4301 12.1528 6.42343C12.1751 6.41938 12.301 6.40153 12.1733 6.41831C12.337 6.39679 12.5025 6.39174 12.6674 6.3969C12.7432 6.39925 12.8187 6.40586 12.8941 6.41387C13.0215 6.42741 12.7891 6.39742 12.9151 6.41718C12.9518 6.42294 12.9884 6.43007 13.0249 6.4372C13.181 6.46768 13.3339 6.51341 13.4832 6.56821C13.5035 6.57567 13.6182 6.6226 13.5033 6.574C13.5367 6.58809 13.5695 6.60339 13.6022 6.61868C13.6675 6.64914 13.7312 6.68314 13.7941 6.7182C13.8568 6.75315 13.9177 6.79142 13.9777 6.83074C14.0077 6.85037 14.0369 6.87104 14.0662 6.89171C14.0837 6.9041 14.1804 6.97826 14.0835 6.90267C14.1962 6.99056 14.301 7.08827 14.4001 7.19105C14.4498 7.24245 14.4966 7.29646 14.5425 7.35124C14.5563 7.36774 14.6303 7.46424 14.556 7.36645C14.5777 7.39496 14.5983 7.42421 14.6189 7.45347C14.7018 7.57094 14.7742 7.69557 14.8395 7.82354C14.8559 7.85572 14.8712 7.88846 14.8864 7.92122C14.8957 7.94109 14.9424 8.05489 14.8953 7.93978C14.9229 8.00725 14.9467 8.07619 14.9693 8.14547C15.0151 8.28597 15.0478 8.43042 15.0725 8.57602C15.0938 8.7018 15.0607 8.46974 15.0758 8.59702C15.0803 8.63455 15.0834 8.67222 15.0864 8.70986C15.0926 8.78602 15.0945 8.86251 15.095 8.93891ZM15.095 8.93891C15.0966 9.20042 15.3118 9.41867 15.5744 9.41867C15.8346 9.41867 16.0556 9.20045 16.0539 8.93891C16.0455 7.59325 15.2543 6.31761 14.0205 5.75997C12.7306 5.17699 11.2304 5.41698 10.1796 6.36279C9.16891 7.27255 8.79843 8.77475 9.23365 10.0568C9.44456 10.6781 9.82987 11.2437 10.3431 11.6537C10.8992 12.098 11.5415 12.3523 12.248 12.4275C13.2225 12.5311 14.2042 12.1639 14.925 11.515C15.6463 10.8658 16.0479 9.9034 16.0539 8.93891C16.0555 8.67738 15.8346 8.45915 15.5744 8.45915C15.3118 8.45915 15.0966 8.67743 15.095 8.93891Z" stroke="black" stroke-width="0.2"/>
<path d="M15.9059 11.589C15.9692 11.6316 16.0314 11.6761 16.0924 11.7223C16.1044 11.7314 16.2037 11.8121 16.1204 11.7432C16.1499 11.7676 16.1786 11.793 16.2074 11.8183C16.3318 11.9282 16.4473 12.0491 16.5563 12.176C16.6066 12.2346 16.6543 12.2957 16.701 12.3575C16.6351 12.2703 16.7119 12.3745 16.7206 12.3872C16.7426 12.4193 16.7641 12.4519 16.7851 12.4847C16.8772 12.6273 16.9575 12.7779 17.0299 12.9326C17.0465 12.9685 17.0626 13.0048 17.0781 13.0413C17.1306 13.1633 17.0441 12.9505 17.0916 13.075C17.1202 13.1498 17.1453 13.2261 17.1691 13.3028C17.2215 13.471 17.2596 13.6439 17.2886 13.8182C17.2913 13.8345 17.3095 13.9713 17.2952 13.8551C17.3003 13.8965 17.3041 13.938 17.3078 13.9796C17.3155 14.0635 17.319 14.1478 17.3213 14.2321C17.3224 14.2756 17.3222 14.3191 17.3222 14.3626V16.8008C17.3222 16.8317 17.3213 16.847 17.3198 16.8778C17.314 17.005 17.3387 16.776 17.3177 16.8998C17.3115 16.9362 17.302 16.9719 17.2926 17.0074C17.287 17.0285 17.2451 17.1436 17.2905 17.0301C17.2639 17.0966 17.2286 17.1588 17.1909 17.2188C17.1276 17.3195 17.2525 17.1433 17.1782 17.2349C17.1488 17.2712 17.1158 17.304 17.0825 17.3361C16.9982 17.4175 17.1605 17.2796 17.0672 17.3495C17.0395 17.3704 17.01 17.3884 16.9806 17.4064C16.9509 17.4246 16.9198 17.4397 16.8887 17.4548C16.9933 17.4039 16.8883 17.45 16.8673 17.457C16.834 17.4681 16.7997 17.4758 16.7655 17.4836C16.6491 17.5098 16.8648 17.4755 16.7447 17.4858C16.7198 17.488 16.6945 17.4883 16.6695 17.4883H8.6086C8.57665 17.4883 8.56784 17.4875 8.53602 17.4858C8.41568 17.4796 8.63232 17.5058 8.51521 17.4836C8.48079 17.477 8.44706 17.467 8.41343 17.457C8.39131 17.45 8.36939 17.4423 8.34773 17.4339C8.40234 17.4599 8.40671 17.4618 8.36086 17.4397C8.29893 17.4095 8.2413 17.3704 8.18583 17.3287C8.27802 17.3979 8.1896 17.3277 8.17324 17.3119C8.14822 17.2878 8.12535 17.2613 8.10255 17.2349C8.02558 17.1457 8.156 17.3174 8.08984 17.2188C8.07014 17.1894 8.05306 17.1582 8.03603 17.1271C8.01886 17.0958 8.00455 17.0629 7.99025 17.03C8.04021 17.1448 7.98552 16.9974 7.97875 16.9719C7.96927 16.9361 7.96304 16.8996 7.95683 16.863C7.97782 16.9865 7.9603 16.8643 7.95916 16.8396C7.95844 16.8237 7.95857 16.8075 7.95857 16.7914V14.4472C7.95857 14.3189 7.95916 14.191 7.96668 14.0628C7.96914 14.0209 7.97294 13.9791 7.97674 13.9374C7.97821 13.9211 7.99558 13.783 7.98002 13.8991C7.99095 13.8174 8.00579 13.7362 8.02186 13.6555C8.05626 13.4829 8.10504 13.3137 8.16241 13.1482C8.17552 13.1104 8.18984 13.073 8.2041 13.0356C8.16404 13.1404 8.21305 13.0171 8.21928 13.0026C8.25068 12.9298 8.28542 12.8586 8.32121 12.7881C8.39839 12.6361 8.48782 12.4914 8.58417 12.3523C8.65825 12.2454 8.52705 12.4271 8.60529 12.3236C8.6287 12.2927 8.65305 12.2625 8.6774 12.2324C8.72607 12.1721 8.77742 12.1143 8.82958 12.0575C8.88176 12.0006 8.93648 11.9464 8.99197 11.8932C9.01986 11.8667 9.04815 11.8407 9.07683 11.8152C9.09114 11.8023 9.21714 11.6976 9.1319 11.7663C9.20161 11.7101 9.27408 11.6578 9.34756 11.6072C9.55376 11.4653 9.63898 11.186 9.50983 10.953C9.3898 10.7363 9.09781 10.639 8.89099 10.7814C7.7595 11.5604 7.05392 12.8896 7.05392 14.3234V16.4382C7.05392 16.8385 7.06315 17.206 7.2387 17.5781C7.49277 18.1167 8.06304 18.4448 8.6216 18.4448H16.6669C17.324 18.4448 17.8963 18.0063 18.1306 17.3651C18.2484 17.043 18.2268 16.694 18.2268 16.3555V14.3172C18.2268 13.5767 18.0366 12.8442 17.6864 12.2038C17.3657 11.6175 16.9008 11.1263 16.3625 10.7631C16.1544 10.6228 15.8645 10.7165 15.7437 10.9347C15.6154 11.1662 15.6984 11.449 15.9059 11.589ZM22.1493 10.8758C22.1486 10.9514 22.1446 11.0269 22.1371 11.1021C22.1497 10.9752 22.136 11.0984 22.132 11.1217C22.1257 11.1579 22.1176 11.1936 22.1094 11.2293C22.0932 11.3 22.0715 11.3692 22.0479 11.4374C22.0082 11.5529 22.0886 11.3445 22.0411 11.4561C22.0225 11.4997 22.0013 11.5419 21.9798 11.5839C21.9477 11.6466 21.9108 11.7064 21.8725 11.7649C21.8073 11.8645 21.9335 11.687 21.8618 11.7812C21.8408 11.8089 21.8183 11.8353 21.7959 11.8617C21.7511 11.9145 21.7023 11.9634 21.6524 12.0107C21.6274 12.0344 21.6012 12.0567 21.5751 12.0789C21.6689 11.9991 21.5497 12.0942 21.5302 12.1079C21.4739 12.1475 21.4147 12.1821 21.3548 12.215C21.3247 12.2315 21.2937 12.2463 21.2627 12.261C21.3696 12.2101 21.264 12.2582 21.2439 12.2659C21.1791 12.2908 21.1125 12.31 21.0455 12.3271C21.0116 12.3357 20.9773 12.3424 20.9431 12.349C20.8917 12.3575 20.897 12.3571 20.9589 12.3478C20.9354 12.3506 20.9119 12.353 20.8883 12.3549C20.8167 12.3614 20.7446 12.3614 20.6728 12.3592C20.6371 12.3581 20.6016 12.3549 20.5661 12.3517C20.4461 12.3408 20.6646 12.3693 20.5467 12.349C20.4781 12.3372 20.4106 12.3192 20.3439 12.2993C20.3108 12.2895 20.2783 12.2777 20.2458 12.2659C20.2243 12.2579 20.203 12.2494 20.1818 12.2405C20.2373 12.266 20.242 12.2679 20.196 12.2462C20.1343 12.2168 20.0749 12.1821 20.0167 12.1458C19.9876 12.1277 19.9596 12.1079 19.9315 12.0882C19.9145 12.0762 19.8229 12.0037 19.9147 12.079C19.7996 11.9847 19.698 11.8732 19.6069 11.7536C19.6794 11.8489 19.6101 11.7539 19.5981 11.7357C19.579 11.7065 19.5613 11.6761 19.5437 11.6457C19.5082 11.5848 19.4776 11.5208 19.4487 11.4561C19.3992 11.3454 19.4836 11.5521 19.4418 11.4375C19.4294 11.4037 19.4189 11.3691 19.4084 11.3347C19.3835 11.2532 19.366 11.1695 19.3515 11.0854C19.33 10.9611 19.3615 11.1915 19.3489 11.0649C19.3452 11.0274 19.3435 10.9897 19.3418 10.9521C19.3384 10.8761 19.3411 10.8 19.3459 10.7243C19.3474 10.7014 19.3632 10.5754 19.3458 10.7029C19.3508 10.6663 19.3578 10.6301 19.3647 10.5939C19.3806 10.5104 19.404 10.4287 19.4301 10.3483C19.4368 10.3274 19.4811 10.214 19.4347 10.3284C19.4481 10.2954 19.4632 10.2632 19.4782 10.2311C19.5082 10.1671 19.5431 10.1058 19.5795 10.0457C19.5977 10.0157 19.6173 9.98679 19.637 9.95793C19.5697 10.0567 19.6358 9.96064 19.6495 9.94329C19.6996 9.87972 19.7551 9.82108 19.8124 9.76473C19.837 9.74055 19.8628 9.71779 19.8885 9.69508C19.9274 9.6622 19.9234 9.66537 19.8766 9.70456C19.8947 9.69054 19.913 9.67687 19.9316 9.66357C19.9964 9.61616 20.0651 9.57506 20.1349 9.53675C20.1651 9.52024 20.196 9.50549 20.227 9.49076C20.1157 9.54374 20.2556 9.48228 20.2782 9.47409C20.3656 9.44236 20.4559 9.42031 20.5467 9.40276C20.6642 9.38006 20.4464 9.41339 20.5661 9.40009C20.6135 9.39481 20.6611 9.3929 20.7088 9.39145C20.7923 9.38894 20.8759 9.39476 20.9589 9.40399C20.8388 9.39066 20.9554 9.40514 20.9775 9.4094C21.023 9.41818 21.0679 9.43015 21.1127 9.44252C21.157 9.45479 21.2006 9.47012 21.2439 9.48584C21.2654 9.49387 21.2867 9.50232 21.3079 9.5112C21.2525 9.48573 21.2477 9.48384 21.2937 9.50551C21.3657 9.53978 21.4346 9.58096 21.5018 9.62463C21.5305 9.64327 21.5582 9.66354 21.5858 9.68382C21.626 9.71497 21.6224 9.71131 21.5751 9.67283C21.5926 9.68751 21.61 9.70248 21.627 9.71781C21.6871 9.77088 21.7426 9.82953 21.7959 9.89008C21.8264 9.92473 21.8548 9.96135 21.8828 9.99821C21.8073 9.89896 21.8973 10.0251 21.9102 10.0457C21.9539 10.1151 21.9916 10.1886 22.0266 10.2632C22.036 10.2833 22.0799 10.3955 22.0357 10.2806C22.0529 10.3254 22.0673 10.3712 22.0814 10.4171C22.1062 10.4986 22.1238 10.5823 22.1383 10.6664C22.1463 10.7207 22.1459 10.7151 22.1371 10.6497C22.1398 10.6745 22.142 10.6994 22.1439 10.7243C22.1479 10.7746 22.1489 10.8253 22.1493 10.8758C22.1516 11.1365 22.3533 11.3541 22.6016 11.3541C22.8464 11.3541 23.0563 11.1365 23.0539 10.8758C23.0476 10.1793 22.7672 9.49964 22.2667 9.04145C21.7256 8.54626 21.0416 8.36801 20.3408 8.47447C19.6963 8.57239 19.1255 9.0224 18.7803 9.59288C18.4222 10.1844 18.3439 10.9589 18.5467 11.6234C18.7157 12.1772 19.0699 12.6407 19.5314 12.9529C20.015 13.2801 20.5903 13.3621 21.149 13.2772C22.2463 13.1104 23.0436 12.017 23.0539 10.8758C23.0563 10.6151 22.8464 10.3976 22.6016 10.3976C22.3533 10.3976 22.1516 10.6152 22.1493 10.8758Z" fill="black"/>
<path d="M22.1493 10.8758C22.1486 10.9514 22.1446 11.0269 22.1371 11.1021C22.1497 10.9752 22.136 11.0984 22.132 11.1217C22.1257 11.1579 22.1176 11.1936 22.1094 11.2293C22.0932 11.3 22.0715 11.3692 22.0479 11.4374C22.0082 11.5529 22.0886 11.3445 22.0411 11.4561C22.0225 11.4997 22.0013 11.5419 21.9798 11.5839C21.9477 11.6466 21.9108 11.7064 21.8725 11.7649C21.8073 11.8645 21.9335 11.687 21.8618 11.7812C21.8408 11.8089 21.8183 11.8353 21.7959 11.8617C21.7511 11.9145 21.7023 11.9634 21.6524 12.0107C21.6274 12.0344 21.6012 12.0567 21.5751 12.0789C21.6689 11.9991 21.5497 12.0942 21.5302 12.1079C21.4739 12.1475 21.4147 12.1821 21.3548 12.215C21.3247 12.2315 21.2937 12.2463 21.2627 12.261C21.3696 12.2101 21.264 12.2582 21.2439 12.2659C21.1791 12.2908 21.1125 12.31 21.0455 12.3271C21.0116 12.3357 20.9773 12.3424 20.9431 12.349C20.8917 12.3575 20.897 12.3571 20.9589 12.3478C20.9354 12.3506 20.9119 12.353 20.8883 12.3549C20.8167 12.3614 20.7446 12.3614 20.6728 12.3592C20.6371 12.3581 20.6016 12.3549 20.5661 12.3517C20.4461 12.3408 20.6646 12.3693 20.5467 12.349C20.4781 12.3372 20.4106 12.3192 20.3439 12.2993C20.3108 12.2895 20.2783 12.2777 20.2458 12.2659C20.2243 12.2579 20.203 12.2494 20.1818 12.2405C20.2373 12.266 20.242 12.2679 20.196 12.2462C20.1343 12.2168 20.0749 12.1821 20.0167 12.1458C19.9876 12.1277 19.9596 12.1079 19.9315 12.0882C19.9145 12.0762 19.8229 12.0037 19.9147 12.079C19.7996 11.9847 19.698 11.8732 19.6069 11.7536C19.6794 11.8489 19.6101 11.7539 19.5981 11.7357C19.579 11.7065 19.5613 11.6761 19.5437 11.6457C19.5082 11.5848 19.4776 11.5208 19.4487 11.4561C19.3992 11.3454 19.4836 11.5521 19.4418 11.4375C19.4294 11.4037 19.4189 11.3691 19.4084 11.3347C19.3835 11.2532 19.366 11.1695 19.3515 11.0854C19.33 10.9611 19.3615 11.1915 19.3489 11.0649C19.3452 11.0274 19.3435 10.9897 19.3418 10.9521C19.3384 10.8761 19.3411 10.8 19.3459 10.7243C19.3474 10.7014 19.3632 10.5754 19.3458 10.7029C19.3508 10.6663 19.3578 10.6301 19.3647 10.5939C19.3806 10.5104 19.404 10.4287 19.4301 10.3483C19.4368 10.3274 19.4811 10.214 19.4347 10.3284C19.4481 10.2954 19.4632 10.2632 19.4782 10.2311C19.5082 10.1671 19.5431 10.1058 19.5795 10.0457C19.5977 10.0157 19.6173 9.98679 19.637 9.95793C19.5697 10.0567 19.6358 9.96064 19.6495 9.94329C19.6996 9.87972 19.7551 9.82108 19.8124 9.76473C19.837 9.74055 19.8628 9.71779 19.8885 9.69508C19.9273 9.6622 19.9234 9.66537 19.8766 9.70456C19.8947 9.69054 19.913 9.67687 19.9316 9.66357C19.9964 9.61616 20.0651 9.57506 20.1349 9.53675C20.1651 9.52024 20.196 9.50549 20.227 9.49076C20.1157 9.54374 20.2556 9.48228 20.2782 9.47409C20.3656 9.44236 20.4559 9.42031 20.5467 9.40276C20.6642 9.38006 20.4464 9.41339 20.5661 9.40009C20.6135 9.39481 20.6611 9.3929 20.7088 9.39145C20.7923 9.38894 20.8759 9.39476 20.9589 9.40399C20.8388 9.39066 20.9554 9.40514 20.9775 9.4094C21.023 9.41818 21.0679 9.43015 21.1127 9.44252C21.157 9.45479 21.2006 9.47012 21.2439 9.48584C21.2654 9.49387 21.2867 9.50232 21.3079 9.5112C21.2525 9.48573 21.2477 9.48384 21.2937 9.50551C21.3657 9.53978 21.4346 9.58096 21.5018 9.62463C21.5305 9.64327 21.5582 9.66354 21.5858 9.68382C21.626 9.71497 21.6224 9.71131 21.5751 9.67283C21.5926 9.68751 21.61 9.70248 21.627 9.71781C21.6871 9.77088 21.7426 9.82953 21.7959 9.89008C21.8264 9.92473 21.8548 9.96135 21.8828 9.99821C21.8073 9.89896 21.8973 10.0251 21.9102 10.0457C21.9539 10.1151 21.9916 10.1886 22.0266 10.2632C22.036 10.2833 22.0799 10.3955 22.0357 10.2806C22.0529 10.3254 22.0673 10.3712 22.0814 10.4171C22.1062 10.4986 22.1238 10.5823 22.1383 10.6664C22.1463 10.7207 22.1459 10.7151 22.1371 10.6497C22.1398 10.6745 22.142 10.6994 22.1439 10.7243C22.1479 10.7746 22.1489 10.8253 22.1493 10.8758ZM22.1493 10.8758C22.1516 11.1365 22.3533 11.3541 22.6016 11.3541C22.8464 11.3541 23.0563 11.1365 23.0539 10.8758M22.1493 10.8758C22.1516 10.6152 22.3533 10.3976 22.6016 10.3976C22.8464 10.3976 23.0563 10.6151 23.0539 10.8758M23.0539 10.8758C23.0476 10.1793 22.7672 9.49964 22.2667 9.04145C21.7256 8.54626 21.0416 8.36801 20.3408 8.47447C19.6963 8.57239 19.1255 9.0224 18.7803 9.59288C18.4222 10.1844 18.3439 10.9589 18.5467 11.6234C18.7157 12.1772 19.0699 12.6407 19.5314 12.9529C20.015 13.2801 20.5903 13.3621 21.149 13.2772C22.2463 13.1104 23.0436 12.017 23.0539 10.8758ZM15.9059 11.589C15.9692 11.6316 16.0314 11.6761 16.0924 11.7223C16.1044 11.7314 16.2037 11.8121 16.1204 11.7432C16.1499 11.7676 16.1786 11.793 16.2074 11.8183C16.3318 11.9282 16.4473 12.0491 16.5563 12.176C16.6066 12.2346 16.6543 12.2957 16.701 12.3575C16.6351 12.2703 16.7119 12.3745 16.7206 12.3872C16.7426 12.4193 16.7641 12.4519 16.7851 12.4847C16.8772 12.6273 16.9575 12.7779 17.0299 12.9326C17.0465 12.9685 17.0626 13.0048 17.0781 13.0413C17.1306 13.1633 17.0441 12.9505 17.0916 13.075C17.1202 13.1498 17.1453 13.2261 17.1691 13.3028C17.2215 13.471 17.2596 13.6439 17.2886 13.8182C17.2913 13.8345 17.3095 13.9713 17.2952 13.8551C17.3003 13.8965 17.3041 13.938 17.3078 13.9796C17.3155 14.0635 17.319 14.1478 17.3213 14.2321C17.3224 14.2756 17.3222 14.3191 17.3222 14.3626V16.8008C17.3222 16.8317 17.3213 16.847 17.3198 16.8778C17.314 17.005 17.3387 16.776 17.3177 16.8998C17.3115 16.9362 17.302 16.9719 17.2926 17.0074C17.287 17.0285 17.2451 17.1436 17.2905 17.0301C17.2639 17.0966 17.2286 17.1588 17.1909 17.2188C17.1276 17.3195 17.2525 17.1433 17.1782 17.2349C17.1488 17.2712 17.1158 17.304 17.0825 17.3361C16.9982 17.4175 17.1605 17.2796 17.0672 17.3495C17.0395 17.3704 17.01 17.3884 16.9806 17.4064C16.9509 17.4246 16.9198 17.4397 16.8887 17.4548C16.9933 17.4039 16.8883 17.45 16.8673 17.457C16.834 17.4681 16.7997 17.4758 16.7655 17.4836C16.6491 17.5098 16.8648 17.4755 16.7447 17.4858C16.7198 17.488 16.6945 17.4883 16.6695 17.4883H8.6086C8.57665 17.4883 8.56784 17.4875 8.53602 17.4858C8.41568 17.4796 8.63232 17.5058 8.51521 17.4836C8.48079 17.477 8.44706 17.467 8.41343 17.457C8.39131 17.45 8.36939 17.4423 8.34773 17.4339C8.40234 17.4599 8.40671 17.4618 8.36086 17.4397C8.29893 17.4095 8.2413 17.3704 8.18583 17.3287C8.27802 17.3979 8.1896 17.3277 8.17324 17.3119C8.14822 17.2878 8.12535 17.2613 8.10255 17.2349C8.02558 17.1457 8.156 17.3174 8.08984 17.2188C8.07014 17.1894 8.05306 17.1582 8.03603 17.1271C8.01886 17.0958 8.00455 17.0629 7.99025 17.03C8.04021 17.1448 7.98552 16.9974 7.97875 16.9719C7.96927 16.9361 7.96304 16.8996 7.95683 16.863C7.97782 16.9865 7.9603 16.8643 7.95916 16.8396C7.95844 16.8237 7.95857 16.8075 7.95857 16.7914V14.4472C7.95857 14.3189 7.95916 14.191 7.96668 14.0628C7.96914 14.0209 7.97294 13.9791 7.97674 13.9374C7.97821 13.9211 7.99558 13.783 7.98002 13.8991C7.99095 13.8174 8.00579 13.7362 8.02186 13.6555C8.05626 13.4829 8.10504 13.3137 8.16241 13.1482C8.17552 13.1104 8.18984 13.073 8.2041 13.0356C8.16404 13.1404 8.21305 13.0171 8.21928 13.0026C8.25068 12.9298 8.28542 12.8586 8.32121 12.7881C8.39839 12.6361 8.48782 12.4914 8.58417 12.3523C8.65825 12.2454 8.52705 12.4271 8.60529 12.3236C8.6287 12.2927 8.65305 12.2625 8.6774 12.2324C8.72607 12.1721 8.77742 12.1143 8.82958 12.0575C8.88176 12.0006 8.93648 11.9464 8.99197 11.8932C9.01986 11.8667 9.04815 11.8407 9.07683 11.8152C9.09114 11.8023 9.21714 11.6976 9.1319 11.7663C9.20161 11.7101 9.27408 11.6578 9.34756 11.6072C9.55376 11.4653 9.63898 11.186 9.50983 10.953C9.3898 10.7363 9.09781 10.639 8.89099 10.7814C7.7595 11.5604 7.05392 12.8896 7.05392 14.3234V16.4382C7.05392 16.8385 7.06315 17.206 7.2387 17.5781C7.49277 18.1167 8.06304 18.4448 8.6216 18.4448H16.6669C17.324 18.4448 17.8963 18.0063 18.1306 17.3651C18.2484 17.043 18.2268 16.694 18.2268 16.3555V14.3172C18.2268 13.5767 18.0366 12.8442 17.6864 12.2038C17.3657 11.6175 16.9008 11.1263 16.3625 10.7631C16.1544 10.6228 15.8645 10.7165 15.7437 10.9347C15.6154 11.1662 15.6984 11.449 15.9059 11.589Z" stroke="black" stroke-width="0.2"/>
<path d="M22.2905 13.0825C22.3221 13.1032 22.3535 13.1245 22.3844 13.1462C22.3972 13.1552 22.4962 13.233 22.4121 13.1653C22.4709 13.2127 22.5263 13.2643 22.5803 13.3172C22.6344 13.3701 22.6846 13.4269 22.7333 13.4849C22.7435 13.497 22.8192 13.598 22.7549 13.5108C22.785 13.5516 22.8127 13.5942 22.8402 13.6369C22.8814 13.7013 22.918 13.7686 22.9529 13.8367C22.9704 13.871 22.9862 13.906 23.002 13.9411C22.9568 13.8408 23.0081 13.9581 23.0139 13.9736C23.0413 14.0467 23.0632 14.1218 23.0832 14.1972C23.0933 14.2354 23.1016 14.274 23.1098 14.3126C23.1141 14.333 23.1398 14.5015 23.1251 14.3858C23.1678 14.7228 23.1418 15.0776 23.1418 15.4162V16.2422C23.1418 16.2667 23.1406 16.2911 23.1383 16.3154C23.1474 16.2515 23.1468 16.2456 23.1366 16.2977C23.1316 16.3207 23.0899 16.428 23.1368 16.3186C23.1232 16.3504 23.1053 16.3799 23.0874 16.4093C23.0283 16.5069 23.1507 16.3385 23.0751 16.4229C23.0597 16.4401 22.9737 16.5112 23.0658 16.4403C23.0388 16.4611 23.009 16.4779 22.9795 16.4946C22.8803 16.5507 23.0705 16.4642 22.9618 16.5005C22.9387 16.5082 22.826 16.5266 22.9458 16.5116C22.9241 16.5143 22.895 16.5151 22.8731 16.5151H18.8168C18.5682 16.5151 18.3608 16.7266 18.3608 16.98C18.3608 17.2334 18.5682 17.4448 18.8168 17.4448H22.642C22.9634 17.4448 23.2818 17.4311 23.5532 17.2223C23.8604 16.986 24.0539 16.6391 24.0539 16.2399V14.7478C24.0539 14.1629 23.9102 13.5918 23.5862 13.1039C23.3653 12.7715 23.082 12.4965 22.7509 12.2799C22.5415 12.1428 22.2486 12.235 22.127 12.4466C21.9973 12.6721 22.0817 12.9459 22.2905 13.0825ZM5.2989 10.8078C5.29824 10.8813 5.29414 10.9547 5.2866 11.0278C5.29934 10.9044 5.28551 11.0242 5.28144 11.0468C5.27516 11.082 5.2669 11.1167 5.25869 11.1514C5.2424 11.2202 5.22046 11.2874 5.19674 11.3537C5.15664 11.4659 5.23774 11.2634 5.18979 11.3719C5.17108 11.4142 5.14973 11.4553 5.12805 11.4961C5.09566 11.557 5.05844 11.6151 5.01977 11.6721C4.95407 11.7688 5.08132 11.5963 5.00903 11.6879C4.98782 11.7148 4.9652 11.7405 4.94261 11.7661C4.89742 11.8174 4.84821 11.8649 4.79789 11.911C4.77269 11.934 4.74632 11.9556 4.71995 11.9773C4.8146 11.8996 4.6943 11.9921 4.67465 12.0054C4.61795 12.0439 4.55827 12.0776 4.49783 12.1095C4.46745 12.1256 4.43623 12.1399 4.40503 12.1542C4.51277 12.1048 4.40626 12.1515 4.38603 12.159C4.32073 12.1832 4.25354 12.2018 4.18602 12.2185C4.15186 12.2269 4.11728 12.2333 4.08272 12.2397C4.03091 12.2481 4.03623 12.2476 4.09867 12.2386C4.07498 12.2413 4.05124 12.2436 4.02747 12.2455C3.95523 12.2518 3.8826 12.2518 3.81023 12.2497C3.77427 12.2486 3.73841 12.2455 3.70258 12.2424C3.58166 12.2318 3.80195 12.2595 3.68303 12.2397C3.61392 12.2283 3.5459 12.2108 3.47856 12.1915C3.44523 12.1819 3.41245 12.1705 3.37972 12.159C3.35805 12.1512 3.33653 12.143 3.31517 12.1343C3.37109 12.1591 3.37589 12.161 3.32947 12.1399C3.26721 12.1113 3.20741 12.0776 3.14867 12.0423C3.1194 12.0246 3.0911 12.0054 3.06285 11.9863C3.04565 11.9746 2.95324 11.9041 3.04581 11.9773C2.92984 11.8856 2.82734 11.7773 2.73551 11.661C2.80863 11.7536 2.73871 11.6614 2.7267 11.6437C2.70736 11.6152 2.68956 11.5857 2.67179 11.5562C2.63603 11.4969 2.60513 11.4348 2.57599 11.3719C2.52609 11.2643 2.61117 11.4652 2.56903 11.3537C2.5566 11.3209 2.546 11.2873 2.53539 11.2538C2.51034 11.1747 2.49265 11.0933 2.478 11.0115C2.45635 10.8907 2.48814 11.1146 2.47542 10.9916C2.47167 10.9551 2.46995 10.9185 2.46826 10.8819C2.46479 10.8081 2.46755 10.7341 2.47238 10.6605C2.47383 10.6383 2.48978 10.5158 2.47232 10.6397C2.47733 10.6042 2.48431 10.569 2.49132 10.5338C2.5074 10.4526 2.53093 10.3732 2.55725 10.295C2.56408 10.2748 2.60867 10.1645 2.56192 10.2757C2.57539 10.2436 2.59061 10.2123 2.60578 10.1811C2.63603 10.1189 2.67122 10.0593 2.70788 10.0009C2.72618 9.97173 2.74601 9.94365 2.76581 9.9156C2.69803 10.0117 2.76464 9.91823 2.77845 9.90136C2.82904 9.83958 2.88499 9.78258 2.94274 9.72781C2.96752 9.7043 2.9935 9.68217 3.01949 9.6601C3.05863 9.62815 3.05461 9.63123 3.00747 9.66932C3.0257 9.65569 3.04417 9.64241 3.06288 9.62947C3.12821 9.58339 3.19748 9.54344 3.26794 9.5062C3.29833 9.49015 3.32955 9.47581 3.36074 9.46149C3.24853 9.513 3.38965 9.45326 3.4124 9.44529C3.50051 9.41445 3.59151 9.39302 3.68306 9.37596C3.80158 9.35389 3.58192 9.3863 3.7026 9.37336C3.7504 9.36823 3.79848 9.36638 3.84648 9.36497C3.93071 9.36252 4.01496 9.36818 4.09869 9.37716C3.97764 9.3642 4.0952 9.37828 4.11741 9.38242C4.16332 9.39095 4.20862 9.40258 4.25375 9.41461C4.29847 9.42654 4.34238 9.44144 4.38609 9.45671C4.40775 9.46452 4.42928 9.47273 4.45064 9.48136C4.39471 9.45661 4.38992 9.45477 4.43633 9.47584C4.50894 9.50915 4.57836 9.54918 4.64609 9.59162C4.67502 9.60974 4.70295 9.62945 4.73087 9.64916C4.77131 9.67944 4.76769 9.67588 4.72 9.63848C4.73771 9.65273 4.75516 9.66731 4.77235 9.6822C4.83297 9.73378 4.88892 9.79079 4.94266 9.84965C4.97341 9.88333 5.00202 9.91892 5.03032 9.95476C4.95418 9.85828 5.04489 9.98087 5.05797 10.0009C5.10204 10.0684 5.13999 10.1398 5.17525 10.2123C5.18473 10.2318 5.22898 10.3409 5.18444 10.2293C5.2018 10.2728 5.21634 10.3173 5.23047 10.362C5.25551 10.4411 5.27321 10.5225 5.28785 10.6042C5.29598 10.657 5.29557 10.6516 5.28668 10.588C5.28939 10.6121 5.29166 10.6363 5.29348 10.6605C5.29752 10.7095 5.29843 10.7587 5.2989 10.8078C5.30127 11.0612 5.50457 11.2727 5.75496 11.2727C6.00177 11.2727 6.21338 11.0612 6.21101 10.8078C6.20468 10.1307 5.92198 9.47013 5.41727 9.02476C4.87177 8.54342 4.18203 8.37016 3.47544 8.47365C2.8256 8.56882 2.25013 9.00624 1.90199 9.56076C1.54098 10.1358 1.46207 10.8886 1.66649 11.5345C1.83687 12.0728 2.19403 12.5233 2.65938 12.8268C3.14697 13.1449 3.72697 13.2245 4.29032 13.142C5.39676 12.9799 6.20067 11.9171 6.21104 10.8078C6.21341 10.5544 6.0018 10.343 5.75498 10.343C5.50454 10.343 5.30127 10.5545 5.2989 10.8078ZM5.29265 16.5151H1.25291C1.21484 16.5151 1.10317 16.4978 1.21502 16.5176C1.1808 16.5115 1.1477 16.5005 1.11482 16.4895C1.22067 16.5248 1.12454 16.4915 1.10022 16.4778C1.07885 16.4657 0.99533 16.3961 1.08297 16.4703C1.06272 16.4531 0.969009 16.3404 1.04104 16.4377C1.02061 16.4101 1.00411 16.3798 0.98772 16.3497C0.932707 16.2486 1.01756 16.4424 0.981961 16.3317C0.974377 16.3081 0.95637 16.1933 0.97112 16.3154C0.968618 16.2946 0.967602 16.2624 0.967602 16.2416V14.6697C0.967602 14.5875 0.972423 14.5057 0.980058 14.424C0.992593 14.2898 0.964109 14.5198 0.985531 14.3877C0.991916 14.3483 1.00028 14.3093 1.00865 14.2702C1.02522 14.1929 1.04755 14.117 1.07171 14.0419C1.0837 14.0047 1.09754 13.9681 1.11135 13.9315C1.07223 14.0351 1.13415 13.8828 1.14288 13.8644C1.17601 13.7947 1.21421 13.7275 1.25393 13.6615C1.27373 13.6286 1.2951 13.5967 1.31647 13.5649C1.32497 13.5522 1.40117 13.4499 1.33547 13.5354C1.43643 13.4041 1.55383 13.2867 1.67939 13.1802C1.77604 13.0981 1.60524 13.2347 1.70704 13.1592C1.73763 13.1365 1.76932 13.1153 1.80096 13.0942C2.00845 12.9556 2.09505 12.6852 1.96456 12.4582C1.8438 12.2481 1.54875 12.1524 1.3406 12.2915C0.738219 12.6938 0.295611 13.305 0.129085 14.0231C0.0369622 14.4202 0.055439 14.8289 0.055439 15.2334V16.237C0.055439 16.9038 0.59864 17.4448 1.24921 17.4448H5.29257C5.54118 17.4448 5.74862 17.2333 5.74862 16.9799C5.74862 16.7265 5.54124 16.5151 5.29265 16.5151Z" fill="black"/>
<path d="M5.2989 10.8078C5.29824 10.8813 5.29414 10.9547 5.2866 11.0278C5.29934 10.9044 5.28551 11.0242 5.28144 11.0468C5.27516 11.082 5.2669 11.1167 5.25869 11.1514C5.2424 11.2202 5.22046 11.2874 5.19674 11.3537C5.15664 11.4659 5.23774 11.2634 5.18979 11.3719C5.17108 11.4142 5.14973 11.4553 5.12805 11.4961C5.09566 11.557 5.05844 11.6151 5.01977 11.6721C4.95407 11.7688 5.08132 11.5963 5.00903 11.6879C4.98782 11.7148 4.9652 11.7405 4.9426 11.7661C4.89742 11.8174 4.84821 11.8649 4.79789 11.911C4.77269 11.934 4.74632 11.9556 4.71995 11.9773C4.8146 11.8996 4.6943 11.9921 4.67465 12.0054C4.61795 12.0439 4.55827 12.0776 4.49783 12.1095C4.46745 12.1256 4.43623 12.1399 4.40503 12.1542C4.51277 12.1048 4.40626 12.1515 4.38604 12.159C4.32073 12.1832 4.25354 12.2018 4.18602 12.2185C4.15186 12.2269 4.11728 12.2333 4.08272 12.2397C4.03091 12.2481 4.03623 12.2476 4.09867 12.2386C4.07498 12.2413 4.05124 12.2436 4.02747 12.2455C3.95523 12.2518 3.8826 12.2518 3.81023 12.2497C3.77427 12.2486 3.73841 12.2455 3.70258 12.2424C3.58166 12.2318 3.80195 12.2595 3.68303 12.2397C3.61392 12.2283 3.5459 12.2108 3.47856 12.1915C3.44523 12.1819 3.41245 12.1705 3.37972 12.159C3.35805 12.1512 3.33653 12.143 3.31517 12.1343C3.37109 12.1591 3.37589 12.161 3.32947 12.1399C3.26721 12.1113 3.20741 12.0776 3.14867 12.0423C3.1194 12.0246 3.0911 12.0054 3.06285 11.9863C3.04565 11.9746 2.95324 11.9041 3.04581 11.9773C2.92984 11.8856 2.82734 11.7773 2.73551 11.661C2.80863 11.7536 2.73871 11.6614 2.7267 11.6437C2.70736 11.6152 2.68956 11.5857 2.67179 11.5562C2.63603 11.4969 2.60513 11.4348 2.57599 11.3719C2.52609 11.2643 2.61117 11.4652 2.56903 11.3537C2.5566 11.3209 2.546 11.2873 2.53539 11.2538C2.51035 11.1747 2.49265 11.0933 2.478 11.0115C2.45635 10.8907 2.48814 11.1146 2.47542 10.9916C2.47167 10.9551 2.46995 10.9185 2.46826 10.8819C2.46479 10.8081 2.46755 10.7341 2.47238 10.6605C2.47383 10.6383 2.48978 10.5158 2.47232 10.6397C2.47733 10.6042 2.48431 10.569 2.49132 10.5338C2.5074 10.4526 2.53093 10.3732 2.55725 10.295C2.56408 10.2748 2.60867 10.1645 2.56192 10.2757C2.57539 10.2436 2.59061 10.2123 2.60578 10.1811C2.63603 10.1189 2.67122 10.0593 2.70788 10.0009C2.72618 9.97173 2.74601 9.94365 2.76581 9.9156C2.69803 10.0117 2.76464 9.91823 2.77845 9.90136C2.82904 9.83958 2.88499 9.78258 2.94274 9.72781C2.96752 9.7043 2.9935 9.68217 3.01949 9.6601C3.05863 9.62815 3.05461 9.63123 3.00747 9.66932C3.0257 9.65569 3.04417 9.64241 3.06288 9.62947C3.12821 9.58339 3.19748 9.54344 3.26794 9.5062C3.29833 9.49015 3.32955 9.47581 3.36074 9.46149C3.24853 9.513 3.38965 9.45326 3.4124 9.44529C3.50051 9.41445 3.59151 9.39302 3.68306 9.37596C3.80158 9.35389 3.58192 9.3863 3.7026 9.37336C3.7504 9.36823 3.79848 9.36638 3.84648 9.36497C3.93071 9.36252 4.01496 9.36818 4.09869 9.37716C3.97764 9.3642 4.0952 9.37828 4.11741 9.38242C4.16332 9.39095 4.20862 9.40258 4.25375 9.41461C4.29847 9.42654 4.34238 9.44144 4.38609 9.45671C4.40775 9.46452 4.42928 9.47273 4.45064 9.48136C4.39471 9.45661 4.38992 9.45477 4.43633 9.47584C4.50894 9.50915 4.57836 9.54918 4.64609 9.59162C4.67502 9.60974 4.70295 9.62945 4.73086 9.64916C4.77131 9.67944 4.76769 9.67588 4.72 9.63848C4.73771 9.65273 4.75516 9.66731 4.77235 9.6822C4.83297 9.73378 4.88892 9.79079 4.94266 9.84965C4.97341 9.88333 5.00202 9.91892 5.03032 9.95476C4.95418 9.85828 5.04489 9.98087 5.05797 10.0009C5.10204 10.0684 5.13999 10.1398 5.17525 10.2123C5.18473 10.2318 5.22898 10.3409 5.18444 10.2293C5.2018 10.2728 5.21634 10.3173 5.23047 10.362C5.25551 10.4411 5.27321 10.5225 5.28785 10.6042C5.29598 10.657 5.29557 10.6516 5.28668 10.588C5.28939 10.6121 5.29166 10.6363 5.29348 10.6605C5.29752 10.7095 5.29843 10.7587 5.2989 10.8078ZM5.2989 10.8078C5.30127 11.0612 5.50457 11.2727 5.75496 11.2727C6.00177 11.2727 6.21338 11.0612 6.21101 10.8078C6.20468 10.1307 5.92198 9.47013 5.41727 9.02476C4.87177 8.54342 4.18204 8.37016 3.47544 8.47365C2.8256 8.56882 2.25013 9.00624 1.90199 9.56076C1.54098 10.1358 1.46207 10.8886 1.66649 11.5345C1.83687 12.0728 2.19403 12.5233 2.65938 12.8268C3.14697 13.1449 3.72697 13.2245 4.29032 13.142C5.39676 12.9799 6.20067 11.9171 6.21104 10.8078C6.21341 10.5544 6.0018 10.343 5.75498 10.343C5.50454 10.343 5.30127 10.5545 5.2989 10.8078ZM22.2905 13.0825C22.3221 13.1032 22.3535 13.1245 22.3844 13.1462C22.3972 13.1552 22.4962 13.233 22.4121 13.1653C22.4709 13.2127 22.5263 13.2643 22.5803 13.3172C22.6344 13.3701 22.6846 13.4269 22.7333 13.4849C22.7435 13.497 22.8192 13.598 22.7549 13.5108C22.785 13.5516 22.8128 13.5942 22.8402 13.6369C22.8814 13.7013 22.918 13.7686 22.9529 13.8367C22.9704 13.871 22.9862 13.906 23.002 13.9411C22.9568 13.8408 23.0081 13.9581 23.0139 13.9736C23.0413 14.0467 23.0632 14.1218 23.0832 14.1972C23.0933 14.2354 23.1016 14.274 23.1098 14.3126C23.1141 14.333 23.1398 14.5015 23.1251 14.3858C23.1678 14.7228 23.1418 15.0776 23.1418 15.4162V16.2422C23.1418 16.2667 23.1406 16.2911 23.1383 16.3154C23.1474 16.2515 23.1468 16.2456 23.1366 16.2977C23.1316 16.3207 23.0899 16.428 23.1368 16.3186C23.1232 16.3504 23.1053 16.3799 23.0874 16.4093C23.0283 16.5069 23.1507 16.3385 23.0751 16.4229C23.0597 16.4401 22.9737 16.5112 23.0658 16.4403C23.0388 16.4611 23.009 16.4779 22.9795 16.4946C22.8803 16.5507 23.0705 16.4642 22.9618 16.5005C22.9387 16.5082 22.826 16.5266 22.9458 16.5116C22.9241 16.5143 22.895 16.5151 22.8731 16.5151H18.8168C18.5682 16.5151 18.3608 16.7266 18.3608 16.98C18.3608 17.2334 18.5682 17.4448 18.8168 17.4448H22.642C22.9634 17.4448 23.2818 17.4311 23.5531 17.2223C23.8604 16.986 24.0539 16.6391 24.0539 16.2399V14.7478C24.0539 14.1629 23.9102 13.5918 23.5862 13.1039C23.3653 12.7715 23.082 12.4965 22.7509 12.2799C22.5415 12.1428 22.2486 12.235 22.127 12.4466C21.9973 12.6721 22.0817 12.9459 22.2905 13.0825ZM5.29265 16.5151H1.25291C1.21484 16.5151 1.10317 16.4978 1.21502 16.5176C1.1808 16.5115 1.1477 16.5005 1.11482 16.4895C1.22067 16.5248 1.12454 16.4915 1.10022 16.4778C1.07885 16.4657 0.99533 16.3961 1.08297 16.4703C1.06272 16.4531 0.969009 16.3404 1.04104 16.4377C1.02061 16.4101 1.00411 16.3798 0.98772 16.3497C0.932707 16.2486 1.01756 16.4424 0.981961 16.3317C0.974377 16.3081 0.956369 16.1933 0.97112 16.3154C0.968618 16.2946 0.967602 16.2624 0.967602 16.2416V14.6697C0.967602 14.5875 0.972423 14.5057 0.980058 14.424C0.992593 14.2898 0.964109 14.5198 0.985531 14.3877C0.991916 14.3483 1.00028 14.3093 1.00865 14.2702C1.02522 14.1929 1.04755 14.117 1.07171 14.0419C1.0837 14.0047 1.09754 13.9681 1.11135 13.9315C1.07223 14.0351 1.13415 13.8828 1.14288 13.8644C1.17601 13.7947 1.21421 13.7275 1.25393 13.6615C1.27373 13.6286 1.2951 13.5967 1.31647 13.5649C1.32497 13.5522 1.40117 13.4499 1.33547 13.5354C1.43643 13.4041 1.55383 13.2867 1.67939 13.1802C1.77604 13.0981 1.60524 13.2347 1.70704 13.1592C1.73763 13.1365 1.76932 13.1153 1.80096 13.0942C2.00845 12.9556 2.09505 12.6852 1.96456 12.4582C1.8438 12.2481 1.54875 12.1524 1.3406 12.2915C0.738219 12.6938 0.295611 13.305 0.129085 14.0231C0.0369622 14.4202 0.055439 14.8289 0.055439 15.2334V16.237C0.055439 16.9038 0.59864 17.4448 1.24921 17.4448H5.29257C5.54118 17.4448 5.74862 17.2333 5.74862 16.9799C5.74862 16.7265 5.54124 16.5151 5.29265 16.5151Z" stroke="black" stroke-width="0.2"/>
</g>
<defs>
<clipPath id="clip0_581_2115">
<rect width="24" height="24" fill="white"/>
</clipPath>
</defs>
</svg>
