<svg width="20" height="20" viewBox="0 0 20 20" fill="none" xmlns="http://www.w3.org/2000/svg">
<path d="M15 13.4865V11.944C15 10.3357 13.6916 9.02734 12.0833 9.02734C11.3941 9.02734 10.8333 8.4665 10.8333 7.77734V6.51317C11.3193 6.34175 11.7403 6.0242 12.0387 5.60408C12.3371 5.18395 12.4982 4.68181 12.5 4.1665C12.5 2.78817 11.3783 1.6665 9.99998 1.6665C8.62165 1.6665 7.49998 2.78817 7.49998 4.1665C7.49998 5.2515 8.19915 6.16734 9.16665 6.51234V7.77734C9.16665 8.4665 8.60581 9.02734 7.91665 9.02734C6.30831 9.02734 4.99998 10.3357 4.99998 11.944V13.4865C4.51402 13.6579 4.09298 13.9755 3.7946 14.3956C3.49621 14.8157 3.33509 15.3179 3.33331 15.8332C3.33331 17.2115 4.45498 18.3332 5.83331 18.3332C7.21165 18.3332 8.33331 17.2115 8.33331 15.8332C8.33154 15.3179 8.17041 14.8157 7.87203 14.3956C7.57364 13.9755 7.15261 13.6579 6.66665 13.4865V11.944C6.66665 11.2548 7.22748 10.694 7.91665 10.694C8.73248 10.694 9.46998 10.3548 9.99998 9.81234C10.2707 10.0911 10.5945 10.3128 10.9523 10.4642C11.3102 10.6157 11.6947 10.6938 12.0833 10.694C12.7725 10.694 13.3333 11.2548 13.3333 11.944V13.4865C12.8474 13.6579 12.4263 13.9755 12.1279 14.3956C11.8295 14.8157 11.6684 15.3179 11.6666 15.8332C11.6666 17.2115 12.7883 18.3332 14.1666 18.3332C15.545 18.3332 16.6666 17.2115 16.6666 15.8332C16.6649 15.3179 16.5037 14.8157 16.2054 14.3956C15.907 13.9755 15.4859 13.6579 15 13.4865ZM5.83331 16.6665C5.61875 16.6569 5.41615 16.5649 5.26771 16.4097C5.11927 16.2545 5.03642 16.048 5.03642 15.8332C5.03642 15.6184 5.11927 15.4119 5.26771 15.2567C5.41615 15.1014 5.61875 15.0094 5.83331 14.9998C6.04788 15.0094 6.25048 15.1014 6.39892 15.2567C6.54736 15.4119 6.6302 15.6184 6.6302 15.8332C6.6302 16.048 6.54736 16.2545 6.39892 16.4097C6.25048 16.5649 6.04788 16.6569 5.83331 16.6665ZM9.99998 3.33317C10.165 3.33301 10.3264 3.38181 10.4637 3.47341C10.601 3.565 10.7081 3.69527 10.7713 3.84773C10.8346 4.00019 10.8512 4.16798 10.819 4.32987C10.7868 4.49176 10.7074 4.64047 10.5907 4.75718C10.4739 4.87389 10.3252 4.95336 10.1633 4.98552C10.0015 5.01768 9.83366 5.00109 9.68121 4.93785C9.52875 4.87461 9.39848 4.76756 9.30688 4.63026C9.21529 4.49295 9.16648 4.33156 9.16665 4.1665C9.16665 3.70734 9.53998 3.33317 9.99998 3.33317ZM14.1666 16.6665C13.9521 16.6569 13.7495 16.5649 13.601 16.4097C13.4526 16.2545 13.3698 16.048 13.3698 15.8332C13.3698 15.6184 13.4526 15.4119 13.601 15.2567C13.7495 15.1014 13.9521 15.0094 14.1666 14.9998C14.3812 15.0094 14.5838 15.1014 14.7323 15.2567C14.8807 15.4119 14.9635 15.6184 14.9635 15.8332C14.9635 16.048 14.8807 16.2545 14.7323 16.4097C14.5838 16.5649 14.3812 16.6569 14.1666 16.6665Z" fill="black"/>
</svg>
